# xmcd
#
# Track frame offsets:
#	150
#	19301
#	35347
#	51802
#	70490
#	85936
#	106732
#	116292
#	135637
#	156503
#	175138
#
# Disc length: 2554 seconds
# Revision: 0
# Processed by: cddbd v1.5.2PL0 Copyright (c) Steve Scherf et al.
# Submitted via: dBpowerAMP V12.0
#
DISCID=8e09f80b
DTITLE=Byrd and Street - Words and Music
DYEAR=2014
DGENRE=Americana
TTITLE0=I'm Gonna Swim
TTITLE1=A Rocking Chair and a Memory
TTITLE2=The Kid In Me
TTITLE3=When I Hear Her Sing
TTITLE4=I Need a Small Town
TTITLE5=Family Matters
TTITLE6=Together Again
TTITLE7=Family, Faith and Friends
TTITLE8=Old Out of Tune Guitar
TTITLE9=Higher Ground
TTITLE10=You Have Been My Friend
EXTD=
EXTT0=
EXTT1=
EXTT2=
EXTT3=
EXTT4=
EXTT5=
EXTT6=
EXTT7=
EXTT8=
EXTT9=
EXTT10=
PLAYORDER=
